<?xml version="1.0" encoding="UTF-8"?>
<svg xmlns="http://www.w3.org/2000/svg" xmlns:xlink="http://www.w3.org/1999/xlink" width="495.33pt" height="91.02pt" viewBox="0 0 495.33 91.02" version="1.1">
<defs>
<clipPath id="clip1">
  <path d="M 483 42 L 495.328125 42 L 495.328125 55 L 483 55 Z M 483 42 "/>
</clipPath>
<clipPath id="clip2">
  <path d="M 483 36 L 495.328125 36 L 495.328125 49 L 483 49 Z M 483 36 "/>
</clipPath>
<clipPath id="clip3">
  <path d="M 483 42 L 495.328125 42 L 495.328125 49 L 483 49 Z M 483 42 "/>
</clipPath>
<clipPath id="clip4">
  <path d="M 444 79 L 456 79 L 456 91.019531 L 444 91.019531 Z M 444 79 "/>
</clipPath>
</defs>
<g id="surface1">
<path style=" stroke:none;fill-rule:nonzero;fill:rgb(98.799133%,71.798706%,16.499329%);fill-opacity:1;" d="M 444.140625 28.949219 L 444.140625 62.03125 L 455.511719 62.03125 L 455.511719 28.949219 L 444.140625 28.949219 "/>
<path style=" stroke:none;fill-rule:nonzero;fill:rgb(16.099548%,41.598511%,70.599365%);fill-opacity:1;" d="M 410.023438 36.679688 C 413.175781 36.679688 415.730469 39.238281 415.730469 42.386719 C 415.730469 45.539063 413.175781 48.09375 410.023438 48.09375 C 406.871094 48.09375 404.316406 45.539063 404.316406 42.386719 C 404.316406 39.238281 406.871094 36.679688 410.023438 36.679688 "/>
<path style=" stroke:none;fill-rule:nonzero;fill:rgb(16.099548%,41.598511%,70.599365%);fill-opacity:1;" d="M 410.023438 42.882813 C 413.175781 42.882813 415.730469 45.441406 415.730469 48.589844 C 415.730469 51.742188 413.175781 54.296875 410.023438 54.296875 C 406.871094 54.296875 404.316406 51.742188 404.316406 48.589844 C 404.316406 45.441406 406.871094 42.882813 410.023438 42.882813 "/>
<path style=" stroke:none;fill-rule:nonzero;fill:rgb(16.099548%,41.598511%,70.599365%);fill-opacity:1;" d="M 404.355469 42.386719 L 415.730469 42.386719 L 415.730469 48.589844 L 404.355469 48.589844 L 404.355469 42.386719 "/>
<g clip-path="url(#clip1)" clip-rule="nonzero">
<path style=" stroke:none;fill-rule:nonzero;fill:rgb(30.198669%,48.599243%,74.899292%);fill-opacity:1;" d="M 489.628906 42.882813 C 492.78125 42.882813 495.335938 45.441406 495.335938 48.589844 C 495.335938 51.742188 492.78125 54.296875 489.628906 54.296875 C 486.476563 54.296875 483.921875 51.742188 483.921875 48.589844 C 483.921875 45.441406 486.476563 42.882813 489.628906 42.882813 "/>
</g>
<g clip-path="url(#clip2)" clip-rule="nonzero">
<path style=" stroke:none;fill-rule:nonzero;fill:rgb(30.198669%,48.599243%,74.899292%);fill-opacity:1;" d="M 489.628906 36.679688 C 492.78125 36.679688 495.335938 39.238281 495.335938 42.386719 C 495.335938 45.539063 492.78125 48.09375 489.628906 48.09375 C 486.476563 48.09375 483.921875 45.539063 483.921875 42.386719 C 483.921875 39.238281 486.476563 36.679688 489.628906 36.679688 "/>
</g>
<g clip-path="url(#clip3)" clip-rule="nonzero">
<path style=" stroke:none;fill-rule:nonzero;fill:rgb(30.198669%,48.599243%,74.899292%);fill-opacity:1;" d="M 483.960938 42.386719 L 495.335938 42.386719 L 495.335938 48.589844 L 483.960938 48.589844 L 483.960938 42.386719 "/>
</g>
<path style=" stroke:none;fill-rule:nonzero;fill:rgb(94.099426%,31.399536%,25.498962%);fill-opacity:1;" d="M 429.664063 55.289063 C 432.816406 55.289063 435.371094 57.84375 435.371094 60.996094 C 435.371094 64.148438 432.816406 66.703125 429.664063 66.703125 C 426.511719 66.703125 423.957031 64.148438 423.957031 60.996094 C 423.957031 57.84375 426.511719 55.289063 429.664063 55.289063 "/>
<path style=" stroke:none;fill-rule:nonzero;fill:rgb(94.099426%,31.399536%,25.498962%);fill-opacity:1;" d="M 429.664063 61.492188 C 432.816406 61.492188 435.371094 64.046875 435.371094 67.199219 C 435.371094 70.351563 432.816406 72.90625 429.664063 72.90625 C 426.511719 72.90625 423.957031 70.351563 423.957031 67.199219 C 423.957031 64.046875 426.511719 61.492188 429.664063 61.492188 "/>
<path style=" stroke:none;fill-rule:nonzero;fill:rgb(94.099426%,31.399536%,25.498962%);fill-opacity:1;" d="M 423.960938 60.996094 L 435.332031 60.996094 L 435.332031 67.199219 L 423.960938 67.199219 L 423.960938 60.996094 "/>
<path style=" stroke:none;fill-rule:nonzero;fill:rgb(94.099426%,31.399536%,25.498962%);fill-opacity:1;" d="M 429.664063 18.074219 C 432.816406 18.074219 435.371094 20.628906 435.371094 23.78125 C 435.371094 26.929688 432.816406 29.488281 429.664063 29.488281 C 426.511719 29.488281 423.957031 26.929688 423.957031 23.78125 C 423.957031 20.628906 426.511719 18.074219 429.664063 18.074219 "/>
<path style=" stroke:none;fill-rule:nonzero;fill:rgb(94.099426%,31.399536%,25.498962%);fill-opacity:1;" d="M 429.664063 38.253906 C 432.816406 38.253906 435.371094 40.808594 435.371094 43.960938 C 435.371094 47.113281 432.816406 49.667969 429.664063 49.667969 C 426.511719 49.667969 423.957031 47.113281 423.957031 43.960938 C 423.957031 40.808594 426.511719 38.253906 429.664063 38.253906 "/>
<path style=" stroke:none;fill-rule:nonzero;fill:rgb(94.099426%,31.399536%,25.498962%);fill-opacity:1;" d="M 423.960938 23.78125 L 435.332031 23.78125 L 435.332031 44.085938 L 423.960938 44.085938 L 423.960938 23.78125 "/>
<path style=" stroke:none;fill-rule:nonzero;fill:rgb(18.399048%,69.398499%,37.998962%);fill-opacity:1;" d="M 469.984375 24.277344 C 473.136719 24.277344 475.691406 26.832031 475.691406 29.984375 C 475.691406 33.132813 473.136719 35.691406 469.984375 35.691406 C 466.832031 35.691406 464.277344 33.132813 464.277344 29.984375 C 464.277344 26.832031 466.832031 24.277344 469.984375 24.277344 "/>
<path style=" stroke:none;fill-rule:nonzero;fill:rgb(18.399048%,69.398499%,37.998962%);fill-opacity:1;" d="M 469.984375 18.074219 C 473.136719 18.074219 475.691406 20.628906 475.691406 23.78125 C 475.691406 26.929688 473.136719 29.488281 469.984375 29.488281 C 466.832031 29.488281 464.277344 26.929688 464.277344 23.78125 C 464.277344 20.628906 466.832031 18.074219 469.984375 18.074219 "/>
<path style=" stroke:none;fill-rule:nonzero;fill:rgb(18.399048%,69.398499%,37.998962%);fill-opacity:1;" d="M 464.320313 23.78125 L 475.691406 23.78125 L 475.691406 29.984375 L 464.320313 29.984375 L 464.320313 23.78125 "/>
<path style=" stroke:none;fill-rule:nonzero;fill:rgb(98.799133%,71.798706%,16.499329%);fill-opacity:1;" d="M 449.847656 6.203125 C 453 6.203125 455.554688 8.757813 455.554688 11.910156 C 455.554688 15.0625 453 17.617188 449.847656 17.617188 C 446.695313 17.617188 444.140625 15.0625 444.140625 11.910156 C 444.140625 8.757813 446.695313 6.203125 449.847656 6.203125 "/>
<path style=" stroke:none;fill-rule:nonzero;fill:rgb(98.799133%,71.798706%,16.499329%);fill-opacity:1;" d="M 449.847656 0 C 453 0 455.554688 2.554688 455.554688 5.707031 C 455.554688 8.859375 453 11.414063 449.847656 11.414063 C 446.695313 11.414063 444.140625 8.859375 444.140625 5.707031 C 444.140625 2.554688 446.695313 0 449.847656 0 "/>
<path style=" stroke:none;fill-rule:nonzero;fill:rgb(98.799133%,71.798706%,16.499329%);fill-opacity:1;" d="M 444.140625 5.707031 L 455.511719 5.707031 L 455.511719 11.910156 L 444.140625 11.910156 L 444.140625 5.707031 "/>
<g clip-path="url(#clip4)" clip-rule="nonzero">
<path style=" stroke:none;fill-rule:nonzero;fill:rgb(98.799133%,71.798706%,16.499329%);fill-opacity:1;" d="M 449.847656 79.605469 C 453 79.605469 455.554688 82.160156 455.554688 85.3125 C 455.554688 88.464844 453 91.019531 449.847656 91.019531 C 446.695313 91.019531 444.140625 88.464844 444.140625 85.3125 C 444.140625 82.160156 446.695313 79.605469 449.847656 79.605469 "/>
</g>
<path style=" stroke:none;fill-rule:nonzero;fill:rgb(98.799133%,71.798706%,16.499329%);fill-opacity:1;" d="M 449.847656 73.402344 C 453 73.402344 455.554688 75.957031 455.554688 79.109375 C 455.554688 82.261719 453 84.816406 449.847656 84.816406 C 446.695313 84.816406 444.140625 82.261719 444.140625 79.109375 C 444.140625 75.957031 446.695313 73.402344 449.847656 73.402344 "/>
<path style=" stroke:none;fill-rule:nonzero;fill:rgb(98.799133%,71.798706%,16.499329%);fill-opacity:1;" d="M 444.140625 79.109375 L 455.511719 79.109375 L 455.511719 85.3125 L 444.140625 85.3125 L 444.140625 79.109375 "/>
<path style=" stroke:none;fill-rule:nonzero;fill:rgb(18.399048%,69.398499%,37.998962%);fill-opacity:1;" d="M 469.984375 61.492188 C 473.136719 61.492188 475.691406 64.046875 475.691406 67.199219 C 475.691406 70.351563 473.136719 72.90625 469.984375 72.90625 C 466.832031 72.90625 464.277344 70.351563 464.277344 67.199219 C 464.277344 64.046875 466.832031 61.492188 469.984375 61.492188 "/>
<path style=" stroke:none;fill-rule:nonzero;fill:rgb(18.399048%,69.398499%,37.998962%);fill-opacity:1;" d="M 469.984375 41.355469 C 473.136719 41.355469 475.691406 43.910156 475.691406 47.0625 C 475.691406 50.214844 473.136719 52.769531 469.984375 52.769531 C 466.832031 52.769531 464.277344 50.214844 464.277344 47.0625 C 464.277344 43.910156 466.832031 41.355469 469.984375 41.355469 "/>
<path style=" stroke:none;fill-rule:nonzero;fill:rgb(18.399048%,69.398499%,37.998962%);fill-opacity:1;" d="M 464.320313 47.0625 L 475.691406 47.0625 L 475.691406 67.242188 L 464.320313 67.242188 L 464.320313 47.0625 "/>
<path style=" stroke:none;fill-rule:nonzero;fill:rgb(98.799133%,71.798706%,16.499329%);fill-opacity:1;" d="M 449.847656 23.242188 C 453 23.242188 455.554688 25.796875 455.554688 28.949219 C 455.554688 32.101563 453 34.65625 449.847656 34.65625 C 446.695313 34.65625 444.140625 32.101563 444.140625 28.949219 C 444.140625 25.796875 446.695313 23.242188 449.847656 23.242188 "/>
<path style=" stroke:none;fill-rule:nonzero;fill:rgb(98.799133%,71.798706%,16.499329%);fill-opacity:1;" d="M 449.847656 56.324219 C 453 56.324219 455.554688 58.878906 455.554688 62.03125 C 455.554688 65.183594 453 67.738281 449.847656 67.738281 C 446.695313 67.738281 444.140625 65.183594 444.140625 62.03125 C 444.140625 58.878906 446.695313 56.324219 449.847656 56.324219 "/>
<path style=" stroke:none;fill-rule:nonzero;fill:rgb(20.399475%,23.498535%,25.099182%);fill-opacity:1;" d="M 160.078125 38.875 C 156.894531 38.875 152.554688 41.644531 152.71875 47.019531 L 165.207031 41.851563 C 164.546875 40.113281 162.476563 38.914063 160.039063 38.914063 Z M 160.492188 55.953125 C 163.636719 55.953125 165.785156 54.378906 167.398438 52.066406 L 172.152344 55.25 C 169.550781 59.140625 165.171875 61.46875 160.492188 61.453125 C 152.957031 61.546875 146.769531 55.511719 146.679688 47.976563 C 146.675781 47.808594 146.675781 47.640625 146.679688 47.472656 C 146.679688 39.203125 152.675781 33.539063 159.914063 33.539063 C 167.109375 33.539063 170.664063 39.246094 171.824219 42.386719 L 172.441406 43.960938 L 153.753906 51.691406 C 155.199219 54.460938 157.390625 55.910156 160.535156 55.910156 Z M 137.582031 60.5 L 137.582031 19.476563 L 143.660156 19.476563 L 143.660156 60.5 Z M 120.503906 55.539063 C 124.640625 55.539063 127.945313 52.023438 127.945313 47.101563 C 127.945313 42.179688 124.636719 38.625 120.503906 38.625 C 116.285156 38.625 112.730469 42.179688 112.730469 47.101563 C 112.730469 51.984375 116.285156 55.539063 120.503906 55.539063 Z M 127.535156 33.992188 L 133.40625 33.992188 L 133.40625 59.054688 C 133.40625 69.390625 127.328125 73.613281 120.132813 73.613281 C 114.695313 73.644531 109.785156 70.371094 107.726563 65.339844 L 113.101563 63.109375 C 114.011719 65.382813 116.328125 68.070313 120.089844 68.070313 C 124.640625 68.070313 127.53125 65.175781 127.53125 59.882813 L 127.53125 57.859375 L 127.328125 57.859375 C 125.464844 59.953125 122.769531 61.117188 119.964844 61.042969 C 112.460938 60.796875 106.519531 54.613281 106.566406 47.105469 C 106.566406 39.25 112.976563 33.085938 119.964844 33.085938 C 123.273438 33.085938 125.960938 34.574219 127.328125 36.230469 L 127.53125 36.230469 Z M 90.027344 55.910156 C 94.242188 55.910156 97.882813 52.4375 97.882813 47.433594 C 97.882813 42.386719 94.285156 38.957031 90.027344 38.957031 C 85.765625 38.957031 82.128906 42.386719 82.128906 47.433594 C 82.128906 52.4375 85.808594 55.910156 89.984375 55.910156 Z M 90.027344 33.539063 C 97.628906 33.421875 103.886719 39.496094 104.003906 47.101563 C 104.003906 47.226563 104.003906 47.351563 104.003906 47.472656 C 104.117188 55.078125 98.046875 61.335938 90.441406 61.453125 C 90.304688 61.457031 90.164063 61.457031 90.027344 61.453125 C 82.421875 61.589844 76.144531 55.539063 76.007813 47.933594 C 76.003906 47.78125 76.003906 47.628906 76.007813 47.472656 C 75.890625 39.894531 81.941406 33.65625 89.523438 33.535156 C 89.691406 33.535156 89.859375 33.535156 90.027344 33.539063 Z M 59.425781 55.910156 C 63.644531 55.910156 67.324219 52.4375 67.324219 47.433594 C 67.324219 42.386719 63.640625 38.957031 59.464844 38.957031 C 55.164063 38.957031 51.566406 42.386719 51.566406 47.433594 C 51.566406 52.4375 55.207031 55.910156 59.425781 55.910156 Z M 59.425781 33.539063 C 67.027344 33.402344 73.304688 39.453125 73.441406 47.058594 C 73.445313 47.199219 73.445313 47.335938 73.445313 47.472656 C 73.558594 55.078125 67.488281 61.335938 59.882813 61.453125 C 59.730469 61.457031 59.578125 61.457031 59.425781 61.453125 C 51.820313 61.570313 45.5625 55.496094 45.445313 47.890625 C 45.445313 47.753906 45.445313 47.613281 45.445313 47.472656 C 45.332031 39.894531 51.386719 33.65625 58.964844 33.539063 C 59.117188 33.535156 59.269531 33.535156 59.425781 33.539063 Z M 1.238281 39.535156 C 1.238281 27.542969 11.246094 17.824219 23.238281 17.824219 C 28.808594 17.738281 34.175781 19.898438 38.128906 23.820313 L 33.910156 27.957031 C 27.664063 22.0625 17.820313 22.347656 11.929688 28.59375 C 9.164063 31.53125 7.644531 35.421875 7.691406 39.453125 C 7.691406 48.175781 14.515625 55.207031 23.242188 55.207031 C 27.34375 55.378906 31.328125 53.800781 34.199219 50.867188 C 35.855469 49.210938 37.011719 46.730469 37.425781 43.421875 L 23.238281 43.421875 L 23.238281 37.507813 L 43.214844 37.507813 C 43.421875 38.582031 43.542969 39.824219 43.542969 41.230469 C 43.726563 46.34375 41.882813 51.320313 38.417969 55.085938 C 34.457031 59.183594 28.933594 61.394531 23.238281 61.164063 C 11.226563 61.1875 1.421875 51.550781 1.238281 39.535156 Z M 375.40625 61.203125 C 370.453125 61.386719 365.925781 58.417969 364.117188 53.800781 L 368.460938 52.023438 C 369.824219 55.25 372.179688 56.90625 375.488281 56.90625 C 376.976563 56.90625 378.21875 56.53125 379.210938 55.871094 C 380.117188 55.296875 380.664063 54.296875 380.65625 53.222656 C 380.65625 51.570313 379.460938 50.410156 377.101563 49.792969 L 371.890625 48.550781 C 370.160156 48.085938 368.554688 47.253906 367.175781 46.113281 C 365.714844 44.972656 364.882813 43.207031 364.941406 41.355469 C 364.941406 39.039063 365.976563 37.21875 368.003906 35.773438 C 370.117188 34.320313 372.636719 33.566406 375.199219 33.625 C 377.515625 33.625 379.539063 34.160156 381.359375 35.195313 C 383.140625 36.226563 384.421875 37.675781 385.207031 39.660156 L 380.988281 41.398438 C 380.039063 39.125 378.050781 37.964844 375.074219 37.964844 C 373.628906 37.964844 372.386719 38.253906 371.394531 38.875 C 370.402344 39.453125 369.945313 40.28125 369.945313 41.273438 C 369.945313 42.761719 371.0625 43.753906 373.378906 44.292969 L 378.507813 45.53125 C 380.90625 46.070313 382.726563 47.0625 383.882813 48.425781 C 385.039063 49.792969 385.621094 51.324219 385.621094 53.101563 C 385.621094 55.414063 384.667969 57.359375 382.765625 58.890625 C 380.863281 60.460938 378.425781 61.203125 375.40625 61.203125 Z M 358.410156 60.789063 C 355.679688 60.789063 353.613281 60.085938 352.164063 58.640625 C 350.644531 56.960938 349.867188 54.742188 350.015625 52.476563 L 350.015625 38.914063 L 345.464844 38.914063 L 345.464844 34.449219 L 350.015625 34.449219 L 350.015625 26.550781 L 354.894531 26.550781 L 354.894531 34.449219 L 361.222656 34.449219 L 361.222656 38.914063 L 354.894531 38.914063 L 354.894531 52.148438 C 354.894531 54.960938 356.054688 56.367188 358.367188 56.367188 C 359.277344 56.367188 360.023438 56.203125 360.601563 55.953125 L 362.257813 60.089844 C 361.222656 60.585938 359.941406 60.792969 358.367188 60.792969 L 358.410156 60.792969 Z M 333.597656 61.203125 C 328.644531 61.386719 324.117188 58.417969 322.308594 53.800781 L 326.652344 52.023438 C 328.015625 55.25 330.371094 56.90625 333.679688 56.90625 C 335.167969 56.90625 336.410156 56.53125 337.402344 55.871094 C 338.3125 55.296875 338.859375 54.296875 338.851563 53.222656 C 338.851563 51.570313 337.652344 50.410156 335.292969 49.792969 L 330.082031 48.550781 C 328.355469 48.085938 326.746094 47.253906 325.367188 46.113281 C 323.90625 44.972656 323.074219 43.207031 323.136719 41.355469 C 323.136719 39.039063 324.167969 37.21875 326.195313 35.773438 C 328.308594 34.320313 330.828125 33.566406 333.390625 33.625 C 335.707031 33.625 337.734375 34.160156 339.554688 35.195313 C 341.332031 36.226563 342.613281 37.675781 343.398438 39.660156 L 339.179688 41.398438 C 338.230469 39.125 336.242188 37.964844 333.265625 37.964844 C 331.820313 37.964844 330.578125 38.253906 329.585938 38.875 C 328.636719 39.453125 328.140625 40.28125 328.140625 41.273438 C 328.140625 42.761719 329.257813 43.753906 331.570313 44.292969 L 336.699219 45.53125 C 339.097656 46.070313 340.917969 47.0625 342.074219 48.425781 C 343.234375 49.792969 343.8125 51.324219 343.8125 53.101563 C 343.8125 55.414063 342.863281 57.359375 340.960938 58.890625 C 339.058594 60.460938 336.617188 61.203125 333.597656 61.203125 Z M 306.800781 56.78125 C 308.785156 56.78125 310.605469 56.035156 312.261719 54.546875 C 313.914063 53.015625 314.738281 51.238281 314.738281 49.210938 C 313.335938 48.097656 311.265625 47.558594 308.539063 47.558594 C 306.179688 47.558594 304.402344 48.054688 303.160156 49.046875 C 302.003906 50.082031 301.382813 51.28125 301.382813 52.644531 C 301.382813 53.925781 301.964844 54.917969 303.039063 55.664063 C 304.113281 56.410156 305.394531 56.78125 306.761719 56.78125 Z M 306.015625 61.203125 C 303.242188 61.203125 300.929688 60.417969 299.109375 58.847656 C 297.269531 57.289063 296.25 54.96875 296.339844 52.5625 C 296.339844 49.75 297.414063 47.515625 299.605469 45.945313 C 301.96875 44.269531 304.816406 43.417969 307.710938 43.507813 C 310.566406 43.507813 312.878906 44.042969 314.738281 45.078125 L 314.738281 44.332031 C 314.738281 42.429688 314.078125 40.941406 312.757813 39.785156 C 311.429688 38.625 309.71875 38.003906 307.960938 38.046875 C 306.554688 38.046875 305.269531 38.378906 304.113281 39.082031 C 302.953125 39.742188 302.167969 40.652344 301.757813 41.808594 L 297.332031 39.910156 C 297.910156 38.378906 299.109375 36.929688 300.886719 35.609375 C 302.625 34.285156 304.941406 33.621094 307.835938 33.621094 C 311.144531 33.621094 313.914063 34.574219 316.105469 36.515625 C 318.296875 38.460938 319.414063 41.191406 319.414063 44.707031 L 319.414063 60.378906 L 314.742188 60.378906 L 314.742188 56.78125 L 314.535156 56.78125 C 312.6875 59.691406 309.417969 61.382813 305.972656 61.207031 L 306.015625 61.207031 Z M 282.941406 61.203125 C 279.050781 61.203125 275.867188 59.921875 273.34375 57.273438 C 270.863281 54.671875 269.621094 51.363281 269.621094 47.433594 C 269.621094 43.460938 270.863281 40.195313 273.34375 37.550781 C 275.824219 34.945313 279.050781 33.621094 282.941406 33.621094 C 287.925781 33.433594 292.488281 36.417969 294.3125 41.0625 L 289.84375 42.921875 C 288.796875 39.863281 285.839844 37.871094 282.609375 38.042969 C 280.460938 38.042969 278.554688 38.953125 276.902344 40.691406 C 275.246094 42.46875 274.464844 44.703125 274.464844 47.429688 C 274.464844 50.117188 275.289063 52.394531 276.941406 54.128906 C 278.597656 55.90625 280.460938 56.777344 282.609375 56.777344 C 286.246094 56.777344 288.730469 55.121094 290.136719 51.894531 L 294.476563 53.757813 C 292.574219 58.414063 287.964844 61.386719 282.941406 61.203125 Z M 253.164063 56.78125 C 255.441406 56.78125 257.382813 55.953125 258.953125 54.257813 C 260.609375 52.5625 261.394531 50.289063 261.394531 47.433594 C 261.394531 44.539063 260.566406 42.308594 258.996094 40.613281 C 257.34375 38.917969 255.4375 38.046875 253.125 38.046875 C 250.890625 38.046875 248.945313 38.875 247.335938 40.613281 C 245.679688 42.308594 244.855469 44.582031 244.855469 47.394531 C 244.855469 50.246094 245.679688 52.523438 247.335938 54.214844 C 248.945313 55.910156 250.890625 56.78125 253.125 56.78125 Z M 252.339844 61.203125 C 249.03125 61.203125 246.136719 59.878906 243.652344 57.273438 C 241.210938 54.589844 239.902344 51.0625 240.015625 47.433594 C 240.015625 43.503906 241.253906 40.238281 243.652344 37.589844 C 247.121094 33.523438 252.945313 32.40625 257.671875 34.902344 C 259.242188 35.726563 260.402344 36.804688 261.1875 38.046875 L 261.394531 38.046875 L 261.1875 34.449219 L 261.1875 22.496094 L 266.027344 22.496094 L 266.027344 60.375 L 261.394531 60.375 L 261.394531 56.777344 L 261.1875 56.777344 C 260.363281 58.019531 259.246094 59.09375 257.671875 59.960938 C 256.101563 60.789063 254.324219 61.203125 252.339844 61.203125 Z M 218.386719 54.257813 C 221.492188 57.546875 226.671875 57.695313 229.960938 54.589844 C 230.078125 54.484375 230.1875 54.371094 230.296875 54.257813 C 231.949219 52.519531 232.777344 50.246094 232.777344 47.433594 C 232.777344 44.621094 231.949219 42.347656 230.296875 40.613281 C 228.644531 38.957031 226.65625 38.046875 224.34375 38.046875 C 222.066406 38.046875 220.082031 38.914063 218.386719 40.613281 C 216.734375 42.347656 215.90625 44.621094 215.90625 47.433594 C 215.90625 50.246094 216.734375 52.519531 218.386719 54.257813 Z M 214.789063 37.589844 C 217.269531 34.945313 220.453125 33.621094 224.34375 33.621094 C 228.230469 33.621094 231.414063 34.945313 233.9375 37.550781 C 236.417969 40.195313 237.660156 43.464844 237.660156 47.433594 C 237.660156 51.363281 236.417969 54.671875 233.9375 57.277344 C 231.457031 59.921875 228.230469 61.207031 224.34375 61.207031 C 220.453125 61.207031 217.3125 59.921875 214.789063 57.277344 C 212.308594 54.671875 211.027344 51.363281 211.027344 47.433594 C 211.027344 43.464844 212.265625 40.199219 214.746094 37.589844 Z M 190.847656 40.40625 L 198.992188 40.40625 C 201.058594 40.40625 202.714844 39.703125 203.953125 38.335938 C 205.152344 36.929688 205.773438 35.441406 205.773438 33.789063 C 205.773438 32.132813 205.152344 30.601563 203.914063 29.238281 C 202.671875 27.832031 201.019531 27.171875 198.992188 27.171875 L 190.847656 27.171875 Z M 190.847656 60.375 L 186.007813 60.375 L 186.007813 22.496094 L 198.910156 22.496094 C 202.09375 22.496094 204.863281 23.574219 207.222656 25.722656 C 209.578125 27.832031 210.738281 30.519531 210.738281 33.785156 C 210.738281 37.011719 209.578125 39.699219 207.222656 41.851563 C 204.960938 43.9375 201.988281 45.078125 198.910156 45.035156 L 190.847656 45.035156 L 190.847656 60.375 "/>
</g>
</svg>
