<?xml version="1.0" encoding="utf-8"?>
<!-- Generator: Adobe Illustrator 20.1.0, SVG Export Plug-In . SVG Version: 6.00 Build 0)  -->
<svg version="1.1" xmlns="http://www.w3.org/2000/svg" xmlns:xlink="http://www.w3.org/1999/xlink" x="0px" y="0px"
	 viewBox="0 0 125 40" enable-background="new 0 0 125 40" xml:space="preserve">
<g id="bg" display="none">
	<rect display="inline" fill="#FFFFFF" width="125" height="40"/>
</g>
<g id="icons">
	<g>
		<g id="gd8Nz8_1_">
			<g>
				<path fill="#FB7F12" d="M19.981,40C8.939,39.985,0.004,31.044,0,20.004C-0.004,8.942,8.985-0.035,20.029,0
					c11.045,0.036,19.974,8.995,19.956,20.023C39.967,31.06,31.001,40.014,19.981,40z M25.776,37.227
					c6.672-1.984,13.432-9.406,12.319-19.397c-1.037-9.304-9.28-16.362-18.797-16.052C10.02,2.081,2.229,9.704,1.792,18.917
					c-0.23,4.841,1.175,9.149,4.304,12.859c2.183,2.588,4.891,4.423,8.152,5.514c1.57-4.711,3.119-9.357,4.664-13.993
					c-1.913-1.081-2.643-2.447-2.234-4.117c0.362-1.477,1.693-2.551,3.201-2.582c1.588-0.033,2.932,0.934,3.372,2.425
					c0.505,1.711-0.15,3.017-2.141,4.265C21.247,23.922,25.563,36.817,25.776,37.227z M20.033,26.642
					c-0.055,0.044-0.098,0.06-0.11,0.089c-0.538,1.325-1.072,2.652-1.608,3.978c-0.062,0.155-0.067,0.296,0.027,0.446
					c0.5,0.791,1.008,1.575,1.619,2.328c0.635-0.775,1.143-1.564,1.644-2.359c0.09-0.142,0.121-0.271,0.053-0.439
					C21.113,29.343,20.576,27.997,20.033,26.642z M24.263,37.75c0.054-0.044,0.108-0.088,0.162-0.131
					c-0.632-1.579-1.263-3.158-1.919-4.798c-0.525,0.679-1,1.292-1.501,1.94C22.019,35.856,23.056,36.899,24.263,37.75z
					 M17.381,33.048c-0.627,1.569-1.229,3.075-1.83,4.581c0.051,0.031,0.102,0.061,0.153,0.092c1.156-0.826,2.161-1.817,3.122-2.868
					C18.336,34.241,17.884,33.677,17.381,33.048z M19.883,35.988c-0.728,0.719-1.439,1.379-2.23,2.028
					c1.088,0.274,3.892,0.247,4.478-0.026c-0.377-0.321-0.756-0.631-1.121-0.955C20.645,36.709,20.293,36.369,19.883,35.988z"/>
				<path fill="#FB7F12" d="M30.116,30.051c-0.384-0.41-0.769-0.821-1.153-1.232c4.869-4.999,4.684-12.877-0.021-17.648
					c0.391-0.4,0.782-0.801,1.174-1.202C35.537,14.988,35.853,24.584,30.116,30.051z"/>
				<path fill="#FB7F12" d="M9.868,9.933c0.431,0.362,0.82,0.768,1.197,1.186c-4.887,4.884-4.758,12.955-0.049,17.698
					c-0.391,0.405-0.781,0.811-1.172,1.217C4.354,24.812,4.221,15.362,9.868,9.933z"/>
				<path fill="#FB7F12" d="M26.243,26.133c-0.432-0.412-0.838-0.801-1.244-1.189c2.743-2.997,2.577-7.08,0.044-9.836
					c0.389-0.402,0.778-0.803,1.168-1.206C29.146,16.479,30.038,22.29,26.243,26.133z"/>
				<path fill="#FB7F12" d="M13.784,13.841c0.381,0.411,0.764,0.825,1.178,1.272c-1.251,1.338-1.97,2.967-1.971,4.882
					c-0.001,1.898,0.697,3.516,2.009,4.924c-0.366,0.459-0.796,0.845-1.212,1.243C10.394,23.042,10.391,16.936,13.784,13.841z"/>
			</g>
		</g>
		<g>
			<path fill="#2B2B3C" d="M61.116,20.088c0.017,1.587-0.289,3.098-1.048,4.506c-1.708,3.168-5.002,4.718-8.607,4.046
				c-3.356-0.626-5.935-3.408-6.356-6.968c-0.366-3.091,0.167-5.941,2.539-8.203c2.22-2.118,4.841-2.772,7.75-1.897
				c2.921,0.878,4.659,2.965,5.435,5.882C61.058,18.316,61.099,19.202,61.116,20.088z M46.13,20.294
				c-0.039,0.518,0.088,1.287,0.27,2.046c0.671,2.807,2.882,4.952,5.447,5.301c3.176,0.432,5.696-0.72,7.114-3.461
				c1.566-3.027,1.489-6.106-0.383-8.977c-2.289-3.51-7.009-3.976-10.056-1.102C46.815,15.71,46.149,17.735,46.13,20.294z"/>
			<path fill="#2B2B3C" d="M107.034,22.265c0.007-1.374,0.327-2.794-1-3.726c-1.65-1.159-3.163-0.281-4.674,0.466
				c-0.276-0.188-0.379-0.472-0.439-0.846c1.358-0.831,2.786-1.379,4.413-1.068c1.703,0.326,2.681,1.418,2.748,3.156
				c0.068,1.77,0.056,3.543,0.038,5.315c-0.01,0.975,0.017,1.912,0.867,2.52c-0.158,0.385-0.425,0.493-0.641,0.693
				c-0.686-0.359-0.928-0.986-1.226-1.713c-0.942,1.263-2.184,1.786-3.698,1.682c-1.7-0.116-2.935-1.164-3.101-2.658
				c-0.198-1.779,0.76-3.282,2.427-3.758c1.213-0.347,2.448-0.31,3.685-0.131C106.601,22.221,106.772,22.235,107.034,22.265z
				 M106.963,23.338c-1.267-0.425-2.651-0.48-3.725-0.15c-1.392,0.429-2.151,1.729-1.773,3.038c0.332,1.15,1.667,1.818,3.002,1.503
				C106.473,27.257,107.325,25.758,106.963,23.338z"/>
			<path fill="#2B2B3C" d="M81.646,23.144c-2.338,0-4.67,0-6.987,0c-0.34,1.591,0.355,3.306,1.622,4.111
				c1.384,0.879,2.996,0.706,4.668-0.526c0.486,0.443,0.531,0.803-0.065,1.237c-2.173,1.579-5.668,0.865-6.791-1.578
				c-1.202-2.617-1.041-5.261,0.676-7.656c1.014-1.415,2.443-2.013,4.193-1.599c1.751,0.415,2.541,1.704,2.859,3.335
				C81.99,21.333,81.996,22.225,81.646,23.144z M80.738,22.217c0.213-1.324,0.042-2.548-1.02-3.528
				c-0.806-0.744-1.768-0.916-2.755-0.464c-1.664,0.762-2.217,2.236-2.456,3.992C76.608,22.217,78.61,22.217,80.738,22.217z"/>
			<path fill="#2B2B3C" d="M110.817,27.741c-0.056-0.454,0.258-0.643,0.325-1.016c0.736,0.357,1.315,0.831,2.058,0.975
				c0.572,0.111,1.117,0.134,1.676-0.025c1.635-0.464,2.058-2.081,0.852-3.292c-0.481-0.483-1.075-0.803-1.663-1.133
				c-0.587-0.329-1.193-0.631-1.745-1.01c-1.313-0.902-1.749-2.11-1.272-3.379c0.478-1.271,1.881-2.04,3.377-1.85
				c1.043,0.132,1.811,0.506,2.723,1.329c-0.096,0.299-0.249,0.559-0.535,0.728c-0.464-0.267-0.907-0.556-1.379-0.785
				c-0.589-0.287-1.228-0.364-1.868-0.211c-0.667,0.16-1.135,0.573-1.313,1.254c-0.187,0.715-0.013,1.336,0.564,1.814
				c0.659,0.546,1.425,0.922,2.174,1.323c0.786,0.421,1.538,0.885,2.086,1.609c1.16,1.531,0.73,3.514-1.014,4.276
				C114.074,29.131,112.36,28.863,110.817,27.741z"/>
			<path fill="#2B2B3C" d="M62.632,17.523c0.346-0.247,0.627-0.365,1.033-0.32c1.139,3.035,2.286,6.09,3.522,9.382
				c1.281-3.269,2.475-6.317,3.661-9.345c0.392-0.142,0.652,0.084,1.077,0.197c-1.554,3.813-3.089,7.58-4.624,11.347
				c-0.097,0.002-0.194,0.004-0.291,0.006C65.557,25.053,64.105,21.315,62.632,17.523z"/>
			<path fill="#2B2B3C" d="M98.539,26.705c0.188,0.315,0.313,0.523,0.432,0.722c-1.834,1.99-5.217,1.737-6.773-0.475
				c-1.835-2.609-1.178-7.085,1.331-9.067c1.656-1.308,3.822-1.167,5.511,0.369c0.081,0.196-0.107,0.306-0.179,0.451
				c-0.061,0.122-0.168,0.221-0.251,0.325c-0.089-0.035-0.165-0.046-0.214-0.088c-2.162-1.902-4.77-0.772-5.704,1.817
				c-0.548,1.52-0.614,3.063-0.078,4.576c0.838,2.364,3.212,3.13,5.329,1.78C98.116,27.004,98.282,26.882,98.539,26.705z"/>
			<path fill="#2B2B3C" d="M118.527,18.164c0.454-1.69,1.837-0.457,2.665-1.097c0-0.981,0-2.063,0-3.092
				c0.323-0.333,0.636-0.433,1.098-0.369c0,1.183,0,2.37,0,3.642c0.922,0,1.756,0,2.506,0c0.313,0.342,0.18,0.609,0.151,0.959
				c-0.869,0-1.703,0-2.636,0c0,3.457,0,6.831,0,10.154c-0.396,0.243-0.698,0.148-1.06,0.114c0-3.393,0-6.747,0-10.139
				C120.346,18.091,119.458,18.334,118.527,18.164z"/>
			<path fill="#2B2B3C" d="M85.483,28.384c-0.374,0.216-0.675,0.13-1.007,0.076c0-3.717,0-7.39,0-11.058
				c0.316-0.212,0.61-0.188,0.989-0.017c0,0.808,0,1.641,0,2.737c1.106-1.789,2.1-3.364,4.308-2.957
				c0.28,0.343,0.17,0.663,0.162,0.993c-0.099,0.022-0.21,0.085-0.292,0.058c-0.764-0.25-1.414,0.023-1.964,0.499
				c-1.371,1.186-2.202,2.654-2.197,4.521C85.487,24.963,85.483,26.691,85.483,28.384z"/>
		</g>
	</g>
</g>
</svg>
