<?xml version="1.0" encoding="utf-8"?>
<!-- Generator: Adobe Illustrator 20.1.0, SVG Export Plug-In . SVG Version: 6.00 Build 0)  -->
<svg version="1.1" id="logos" xmlns="http://www.w3.org/2000/svg" xmlns:xlink="http://www.w3.org/1999/xlink" x="0px" y="0px"
	 viewBox="0 0 125 40" enable-background="new 0 0 125 40" xml:space="preserve">
<g>
	<g>
		<rect x="5.854" y="14.739" fill="#EE4024" width="6.598" height="10.418"/>
		<rect x="4.399" y="14.739" fill="#F68E1E" width="1.455" height="10.418"/>
		<rect y="14.739" fill="#FDD900" width="4.399" height="10.418"/>
		<rect x="26.494" y="14.739" fill="#C8D254" width="5.786" height="10.418"/>
		<rect x="12.452" y="14.739" fill="#0AADE9" width="9.61" height="10.418"/>
	</g>
	<rect x="23.922" y="11.687" width="0.778" height="16.626"/>
	<rect x="24.215" y="14.739" fill="#FFFFFF" width="0.193" height="10.418"/>
	<path d="M44.983,17.051l1.427-1.637c0,0-1.301-1.595-3.904-1.595c-2.603,0-4.324,1.343-4.324,3.694
		c0,4.198,5.668,2.771,5.668,4.954c0,0.546-0.546,1.301-1.553,1.301c-1.008,0-2.057-0.42-3.065-1.385l-1.763,1.805
		c0,0,1.763,1.931,4.66,1.931c2.897,0,4.618-1.511,4.618-3.862c0-4.198-5.835-2.897-5.835-5.122c0-0.462,0.504-1.05,1.553-1.05
		C43.513,16.085,44.437,16.589,44.983,17.051z"/>
	<polygon points="58.879,14.112 48.677,14.112 48.677,16.421 52.455,16.421 52.455,25.867 55.142,25.867 55.142,16.421 
		58.879,16.421 	"/>
	<polygon points="77.225,14.112 67.023,14.112 67.023,16.421 70.801,16.421 70.801,25.867 73.488,25.867 73.488,16.421 
		77.225,16.421 	"/>
	<rect x="61.607" y="14.112" width="2.687" height="11.755"/>
	<path d="M87.409,21.973c-0.664,1.042-1.834,1.669-3.068,1.669c-1.89,0-3.422-1.654-3.422-3.694s1.532-3.694,3.422-3.694
		c1.184,0,2.311,0.667,2.986,1.666l1.831-1.808c-1.126-1.422-2.863-2.335-4.813-2.335c-3.394,0-6.146,2.519-6.146,6.171
		c0,3.408,2.258,6.171,6.146,6.171c1.989,0,3.756-0.949,4.879-2.421L87.409,21.973z"/>
	<polygon points="99.223,14.112 99.223,18.604 94.188,18.604 94.188,14.112 91.457,14.112 91.457,25.867 94.188,25.867 
		94.188,21.039 99.223,21.039 99.223,25.867 101.91,25.867 101.91,14.112 	"/>
	<polygon points="107.703,23.39 107.703,21.039 111.818,21.039 111.818,18.73 107.703,18.73 107.703,16.379 113.035,16.379 
		113.035,14.112 104.975,14.112 104.975,25.867 113.413,25.867 113.413,23.39 	"/>
	<path d="M122.355,21.165c1.595-0.756,1.973-2.351,1.973-3.443c0-1.092-0.756-3.61-4.282-3.61c-0.126,0-4.198,0-4.198,0v11.755
		h2.519v-4.282h1.511l2.267,4.282H125L122.355,21.165z M119.752,19.402c-0.548,0-1.096,0-1.385,0v-3.107c0,0,0.588,0,1.595,0
		c1.008,0,1.679,0.672,1.679,1.469C121.641,19.192,120.55,19.402,119.752,19.402z"/>
</g>
<rect x="0" y="0" fill="none" width="125" height="40"/>
</svg>
